<svg width="63" height="74" viewBox="0 0 63 74" fill="none" xmlns="http://www.w3.org/2000/svg">
<path d="M58.6697 13.6492L59.3726 12.9379V12.9379L58.6697 13.6492ZM49.0191 4.11248L49.722 3.40119V3.40119L49.0191 4.11248ZM13.6662 29.9386C13.114 29.9386 12.6662 30.3863 12.6662 30.9386C12.6662 31.4909 13.114 31.9386 13.6662 31.9386V29.9386ZM31.5232 31.9386C32.0755 31.9386 32.5232 31.4909 32.5232 30.9386C32.5232 30.3863 32.0755 29.9386 31.5232 29.9386V31.9386ZM13.6662 41.7027C13.114 41.7027 12.6662 42.1504 12.6662 42.7027C12.6662 43.255 13.114 43.7027 13.6662 43.7027V41.7027ZM47.8921 43.7027C48.4444 43.7027 48.8921 43.255 48.8921 42.7027C48.8921 42.1504 48.4444 41.7027 47.8921 41.7027V43.7027ZM43.4278 71.1131H19.6186V73.1131H43.4278V71.1131ZM2.7616 54.4669V19.1745H0.761597V54.4669H2.7616ZM59.3726 12.9379L49.722 3.40119L48.3162 4.82377L57.9668 14.3605L59.3726 12.9379ZM19.6186 2.52826H40.4517V0.528259H19.6186V2.52826ZM40.4517 2.52826H42.7057V0.528259H40.4517V2.52826ZM39.4517 1.52826V13.2924H41.4517V1.52826H39.4517ZM60.2848 19.8881V22.1155H62.2848V19.8881H60.2848ZM60.2848 22.1155V54.4669H62.2848V22.1155H60.2848ZM49.3802 23.1155H61.2848V21.1155H49.3802V23.1155ZM39.4517 13.2924C39.4517 18.7287 43.908 23.1155 49.3802 23.1155V21.1155C44.9902 21.1155 41.4517 17.6018 41.4517 13.2924H39.4517ZM49.722 3.40119C47.8591 1.56034 45.3351 0.528259 42.7057 0.528259V2.52826C44.8123 2.52826 46.8302 3.35532 48.3162 4.82378L49.722 3.40119ZM57.9668 14.3605C59.4524 15.8285 60.2848 17.8171 60.2848 19.8881H62.2848C62.2848 17.279 61.2359 14.7792 59.3726 12.9379L57.9668 14.3605ZM19.6186 71.1131C10.2975 71.1131 2.7616 63.6491 2.7616 54.4669H0.761597C0.761597 64.776 9.21537 73.1131 19.6186 73.1131V71.1131ZM43.4278 73.1131C53.831 73.1131 62.2848 64.776 62.2848 54.4669H60.2848C60.2848 63.6491 52.7489 71.1131 43.4278 71.1131V73.1131ZM2.7616 19.1745C2.7616 9.99218 10.2975 2.52826 19.6186 2.52826V0.528259C9.21537 0.528259 0.761597 8.86529 0.761597 19.1745H2.7616ZM13.6662 31.9386H31.5232V29.9386H13.6662V31.9386ZM13.6662 43.7027H47.8921V41.7027H13.6662V43.7027Z" fill="black"/>
</svg>
