<svg width="35" height="35" viewBox="0 0 35 35" fill="none" xmlns="http://www.w3.org/2000/svg">
<path d="M0 17.5C0 7.83502 7.83502 0 17.5 0C27.165 0 35 7.83502 35 17.5C35 27.165 27.165 35 17.5 35C7.83502 35 0 27.165 0 17.5Z" fill="white"/>
<path d="M17.5 12.8488C18.924 12.8488 19.8846 13.4639 20.4323 13.9779L22.5724 11.8883C21.258 10.6665 19.5475 9.91663 17.5 9.91663C14.5341 9.91663 11.9726 11.6187 10.7256 14.0959L13.1775 16.0001C13.7926 14.1717 15.4947 12.8488 17.5 12.8488Z" fill="#EA4335"/>
<path d="M24.78 17.6685C24.78 17.045 24.7294 16.59 24.6199 16.1182H17.5V18.9324H21.6793C21.595 19.6318 21.14 20.685 20.1289 21.3928L22.5219 23.2465C23.9543 21.9236 24.78 19.9772 24.78 17.6685Z" fill="#4285F4"/>
<path d="M13.1859 18.9997C13.0259 18.5279 12.9332 18.0223 12.9332 17.4999C12.9332 16.9775 13.0259 16.4719 13.1775 16.0001L10.7256 14.0958C10.2116 15.1238 9.91669 16.2781 9.91669 17.4999C9.91669 18.7217 10.2116 19.876 10.7256 20.904L13.1859 18.9997Z" fill="#FBBC05"/>
<path d="M17.5 25.0833C19.5475 25.0833 21.2664 24.4092 22.5219 23.2464L20.1289 21.3927C19.4885 21.8393 18.6291 22.1511 17.5 22.1511C15.4947 22.1511 13.7926 20.8282 13.186 18.9998L10.734 20.904C11.981 23.3812 14.5341 25.0833 17.5 25.0833Z" fill="#34A853"/>
</svg>
