<svg width="35" height="35" viewBox="0 0 35 35" fill="none" xmlns="http://www.w3.org/2000/svg">
<path d="M0 17.5C0 7.83502 7.83502 0 17.5 0C27.165 0 35 7.83502 35 17.5C35 27.165 27.165 35 17.5 35C7.83502 35 0 27.165 0 17.5Z" fill="#0077B5"/>
<path fill-rule="evenodd" clip-rule="evenodd" d="M12.6283 10.8082C12.6283 11.9524 11.767 12.8679 10.3842 12.8679H10.3588C9.02741 12.8679 8.16666 11.9524 8.16666 10.8082C8.16666 9.63988 9.05362 8.75 10.4103 8.75C11.767 8.75 12.6025 9.63988 12.6283 10.8082ZM12.3671 14.4943V26.4101H8.40117V14.4943H12.3671ZM26.6694 26.4101L26.6695 19.5779C26.6695 15.9179 24.7131 14.2145 22.1033 14.2145C19.9977 14.2145 19.055 15.371 18.5286 16.1824V14.4946H14.5622C14.6145 15.6127 14.5622 26.4104 14.5622 26.4104H18.5286V19.7556C18.5286 19.3995 18.5543 19.0443 18.6592 18.7893C18.9458 18.0778 19.5984 17.3412 20.6941 17.3412C22.1298 17.3412 22.7037 18.4339 22.7037 20.0351V26.4101H26.6694Z" fill="white"/>
</svg>
