<svg width="105" height="62" viewBox="0 0 105 62" fill="none" xmlns="http://www.w3.org/2000/svg">
<path d="M20.4475 52.3899C19.8953 52.3899 19.4475 52.8376 19.4475 53.3899C19.4475 53.9421 19.8953 54.3899 20.4475 54.3899V52.3899ZM65.8602 2.82453L66.3046 1.92872V1.92872L65.8602 2.82453ZM71.6836 8.49488L70.7976 8.95851L71.6836 8.49488ZM20.4476 0.410324C19.8953 0.410314 19.4476 0.858021 19.4475 1.41031C19.4475 1.96259 19.8952 2.41031 20.4475 2.41032L20.4476 0.410324ZM73.1359 20.873V19.873H72.1359V20.873H73.1359ZM102.755 51.9723L101.869 51.5086V51.5086L102.755 51.9723ZM101.299 53.3899L101.744 54.2857V54.2857L101.299 53.3899ZM94.9328 22.464L94.4883 23.3598L94.9328 22.464ZM101.484 28.8432L102.37 28.3795L101.484 28.8432ZM9.42408 18.7918C8.8718 18.7918 8.42408 19.2395 8.42408 19.7918C8.42408 20.3441 8.8718 20.7918 9.42408 20.7918V18.7918ZM28.1629 20.7918C28.7152 20.7918 29.1629 20.3441 29.1629 19.7918C29.1629 19.2395 28.7152 18.7918 28.1629 18.7918V20.7918ZM1.92856 33.4969C1.37627 33.4969 0.928558 33.9447 0.928558 34.4969C0.928558 35.0492 1.37627 35.4969 1.92856 35.4969V33.4969ZM31.9107 35.4969C32.4629 35.4969 32.9107 35.0492 32.9107 34.4969C32.9107 33.9447 32.4629 33.4969 31.9107 33.4969V35.4969ZM34.4924 2.41032H51.8154V0.410324H34.4924V2.41032ZM72.1359 22.1706V53.7434H74.1359V22.1706H72.1359ZM51.8154 2.41032C55.5629 2.41032 58.315 2.41106 60.4881 2.58395C62.6504 2.75597 64.1526 3.09365 65.4157 3.72034L66.3046 1.92872C64.7173 1.1412 62.9286 0.771781 60.6467 0.59025C58.3758 0.409586 55.5307 0.410324 51.8154 0.410324V2.41032ZM74.1359 22.1706C74.1359 18.5541 74.1368 15.78 73.9509 13.5649C73.764 11.3373 73.3831 9.5858 72.5696 8.03124L70.7976 8.95851C71.4365 10.1795 71.7817 11.6325 71.9579 13.7321C72.1351 15.8442 72.1359 18.5202 72.1359 22.1706H74.1359ZM65.4157 3.72034C67.7371 4.87207 69.6195 6.70729 70.7976 8.95851L72.5696 8.03124C71.1925 5.3996 68.9979 3.26493 66.3046 1.92872L65.4157 3.72034ZM34.4924 0.410324C27.0294 0.410324 22.5413 0.410363 20.4476 0.410324L20.4475 2.41032C22.5412 2.41036 27.0295 2.41032 34.4924 2.41032V0.410324ZM73.1359 21.873H79.1324V19.873H73.1359V21.873ZM102.118 44.2283V48.5533H104.118V44.2283H102.118ZM74.1359 22.1706V20.873H72.1359V22.1706H74.1359ZM102.118 48.5533C102.118 49.4786 102.117 50.1109 102.076 50.6003C102.036 51.0772 101.963 51.3285 101.869 51.5086L103.641 52.4359C103.91 51.9222 104.018 51.3724 104.069 50.7675C104.119 50.1751 104.118 49.4448 104.118 48.5533H102.118ZM97.7879 54.7434C98.7047 54.7434 99.4509 54.7441 100.055 54.6961C100.671 54.6471 101.225 54.5429 101.744 54.2857L100.855 52.494C100.66 52.5904 100.392 52.6629 99.8966 52.7024C99.39 52.7427 98.7368 52.7434 97.7879 52.7434V54.7434ZM101.869 51.5086C101.649 51.9288 101.296 52.2753 100.855 52.4941L101.744 54.2857C102.556 53.8824 103.222 53.2365 103.641 52.4359L101.869 51.5086ZM79.1324 21.873C83.3463 21.873 86.4482 21.8738 88.8992 22.0688C91.3392 22.2629 93.0471 22.6448 94.4883 23.3598L95.3772 21.5682C93.6118 20.6923 91.6173 20.2787 89.0578 20.0751C86.5091 19.8723 83.3142 19.873 79.1324 19.873V21.873ZM104.118 44.2283C104.118 40.1577 104.119 37.043 103.91 34.5574C103.701 32.0593 103.274 30.1076 102.37 28.3795L100.598 29.3068C101.328 30.7013 101.718 32.3545 101.917 34.7246C102.117 37.1072 102.118 40.1238 102.118 44.2283H104.118ZM94.4883 23.3598C97.1232 24.6671 99.2604 26.7504 100.598 29.3068L102.37 28.3795C100.833 25.4427 98.3839 23.0599 95.3772 21.5682L94.4883 23.3598ZM38.8225 53.7434C38.8225 56.7492 36.3125 59.231 33.1598 59.231V61.231C37.3665 61.231 40.8225 57.9036 40.8225 53.7434H38.8225ZM33.1598 59.231C30.0071 59.231 27.4971 56.7492 27.4971 53.7434H25.4971C25.4971 57.9036 28.9531 61.231 33.1598 61.231V59.231ZM33.1598 48.2558C36.3125 48.2558 38.8225 50.7376 38.8225 53.7434H40.8225C40.8225 49.5832 37.3665 46.2558 33.1598 46.2558V48.2558ZM73.1359 52.7434H39.8225V54.7434H73.1359V52.7434ZM27.4971 53.7434C27.4971 53.7083 27.4975 53.6732 27.4982 53.6383L25.4985 53.5997C25.4976 53.6475 25.4971 53.6954 25.4971 53.7434H27.4971ZM27.4982 53.6383C27.5553 50.6806 30.0441 48.2558 33.1598 48.2558V46.2558C29.0016 46.2558 25.5776 49.5062 25.4985 53.5997L27.4982 53.6383ZM26.5577 52.6207C23.9419 52.4653 22.5732 52.3899 20.4475 52.3899V54.3899C22.5093 54.3899 23.8271 54.462 26.439 54.6172L26.5577 52.6207ZM93.7897 53.7434C93.7897 56.7492 91.2797 59.231 88.127 59.231V61.231C92.3337 61.231 95.7897 57.9036 95.7897 53.7434H93.7897ZM88.127 59.231C84.9743 59.231 82.4643 56.7492 82.4643 53.7434H80.4643C80.4643 57.9036 83.9203 61.231 88.127 61.231V59.231ZM82.4643 53.7434C82.4643 50.7376 84.9743 48.2558 88.127 48.2558V46.2558C83.9203 46.2558 80.4643 49.5832 80.4643 53.7434H82.4643ZM88.127 48.2558C91.2797 48.2558 93.7897 50.7376 93.7897 53.7434H95.7897C95.7897 49.5832 92.3337 46.2558 88.127 46.2558V48.2558ZM97.7879 52.7434H94.7897V54.7434H97.7879V52.7434ZM81.4643 52.7434H73.1359V54.7434H81.4643V52.7434ZM9.42408 20.7918H28.1629V18.7918H9.42408V20.7918ZM1.92856 35.4969H31.9107V33.4969H1.92856V35.4969Z" fill="black"/>
</svg>
