<?xml version="1.0" encoding="UTF-8"?><svg xmlns="http://www.w3.org/2000/svg" xmlns:xlink="http://www.w3.org/1999/xlink" contentScriptType="text/ecmascript" width="375pt" zoomAndPan="magnify" contentStyleType="text/css" viewBox="0 0 375 374.999991" height="374.999991pt" preserveAspectRatio="xMidYMid meet" version="1.2"><defs><g/><filter x="0%" y="0%" width="100%" xmlns:xlink="http://www.w3.org/1999/xlink" xlink:type="simple" filterUnits="objectBoundingBox" xlink:actuate="onLoad" id="alpha" height="100%" xlink:show="other" xml:id="alpha"><feColorMatrix values="0 0 0 0 1 0 0 0 0 1 0 0 0 0 1 0 0 0 1 0" type="matrix" in="SourceGraphic"/></filter><clipPath xml:id="clip2" id="clip2"><path d="M 0.0390625 0.28125 L 256.839844 0.28125 L 256.839844 257 L 0.0390625 257 Z M 0.0390625 0.28125 "/></clipPath><clipPath xml:id="clip1" id="clip1"><rect x="0" width="257" y="0" height="258"/></clipPath></defs><g xml:id="surface1" id="surface1"><g mask="url(#mask0)" transform="matrix(1,0,0,1,59,53)"><g xml:id="surface5" id="surface5" clip-path="url(#clip1)"><g clip-rule="nonzero" clip-path="url(#clip2)"><path style=" stroke:none;fill-rule:nonzero;fill:rgb(25.099182%,56.858826%,42.349243%);fill-opacity:1;" d="M 128.5 0.363281 C 126.402344 0.363281 124.300781 0.414062 122.207031 0.515625 C 120.109375 0.621094 118.015625 0.773438 115.925781 0.980469 C 113.835938 1.1875 111.753906 1.441406 109.675781 1.75 C 107.601562 2.058594 105.53125 2.417969 103.472656 2.828125 C 101.414062 3.238281 99.367188 3.695312 97.332031 4.207031 C 95.292969 4.71875 93.269531 5.277344 91.261719 5.886719 C 89.253906 6.496094 87.261719 7.152344 85.285156 7.859375 C 83.308594 8.570312 81.347656 9.324219 79.410156 10.128906 C 77.46875 10.929688 75.550781 11.78125 73.652344 12.679688 C 71.753906 13.578125 69.878906 14.519531 68.027344 15.507812 C 66.175781 16.5 64.351562 17.535156 62.550781 18.613281 C 60.75 19.691406 58.976562 20.816406 57.230469 21.980469 C 55.484375 23.148438 53.769531 24.355469 52.082031 25.605469 C 50.398438 26.859375 48.742188 28.148438 47.121094 29.480469 C 45.496094 30.8125 43.90625 32.183594 42.351562 33.59375 C 40.796875 35.003906 39.277344 36.449219 37.792969 37.933594 C 36.308594 39.417969 34.859375 40.941406 33.449219 42.496094 C 32.039062 44.050781 30.667969 45.640625 29.335938 47.261719 C 28.003906 48.886719 26.714844 50.539062 25.464844 52.226562 C 24.214844 53.914062 23.003906 55.628906 21.839844 57.375 C 20.671875 59.121094 19.550781 60.894531 18.46875 62.695312 C 17.390625 64.496094 16.355469 66.320312 15.367188 68.171875 C 14.375 70.023438 13.433594 71.898438 12.535156 73.796875 C 11.636719 75.695312 10.789062 77.613281 9.984375 79.550781 C 9.179688 81.492188 8.425781 83.449219 7.71875 85.425781 C 7.011719 87.402344 6.351562 89.394531 5.742188 91.40625 C 5.132812 93.414062 4.574219 95.4375 4.0625 97.472656 C 3.554688 99.511719 3.09375 101.558594 2.683594 103.617188 C 2.273438 105.675781 1.914062 107.742188 1.609375 109.820312 C 1.300781 111.898438 1.042969 113.980469 0.835938 116.070312 C 0.632812 118.160156 0.476562 120.253906 0.375 122.347656 C 0.269531 124.445312 0.21875 126.542969 0.21875 128.644531 C 0.21875 130.742188 0.269531 132.839844 0.375 134.9375 C 0.476562 137.035156 0.632812 139.128906 0.835938 141.21875 C 1.042969 143.304688 1.300781 145.390625 1.609375 147.464844 C 1.914062 149.542969 2.273438 151.609375 2.683594 153.667969 C 3.09375 155.730469 3.554688 157.777344 4.0625 159.8125 C 4.574219 161.851562 5.132812 163.871094 5.742188 165.882812 C 6.351562 167.890625 7.011719 169.882812 7.71875 171.859375 C 8.425781 173.835938 9.179688 175.792969 9.984375 177.734375 C 10.789062 179.675781 11.636719 181.59375 12.535156 183.492188 C 13.433594 185.386719 14.375 187.261719 15.367188 189.113281 C 16.355469 190.964844 17.390625 192.792969 18.46875 194.59375 C 19.550781 196.394531 20.671875 198.167969 21.839844 199.914062 C 23.003906 201.65625 24.214844 203.375 25.464844 205.058594 C 26.714844 206.746094 28.003906 208.402344 29.335938 210.023438 C 30.667969 211.648438 32.039062 213.234375 33.449219 214.792969 C 34.859375 216.347656 36.308594 217.867188 37.792969 219.351562 C 39.277344 220.835938 40.796875 222.285156 42.351562 223.695312 C 43.90625 225.101562 45.496094 226.472656 47.121094 227.804688 C 48.742188 229.136719 50.398438 230.429688 52.082031 231.679688 C 53.769531 232.929688 55.484375 234.140625 57.230469 235.304688 C 58.976562 236.472656 60.75 237.59375 62.550781 238.671875 C 64.351562 239.753906 66.175781 240.789062 68.027344 241.777344 C 69.878906 242.765625 71.753906 243.710938 73.652344 244.609375 C 75.550781 245.503906 77.46875 246.355469 79.410156 247.160156 C 81.347656 247.964844 83.308594 248.71875 85.285156 249.425781 C 87.261719 250.132812 89.253906 250.792969 91.261719 251.402344 C 93.269531 252.011719 95.292969 252.570312 97.332031 253.078125 C 99.367188 253.589844 101.414062 254.050781 103.472656 254.460938 C 105.53125 254.867188 107.601562 255.226562 109.675781 255.535156 C 111.753906 255.84375 113.835938 256.101562 115.925781 256.308594 C 118.015625 256.511719 120.109375 256.667969 122.207031 256.769531 C 124.300781 256.871094 126.402344 256.925781 128.5 256.925781 C 130.597656 256.925781 132.699219 256.871094 134.792969 256.769531 C 136.890625 256.667969 138.984375 256.511719 141.074219 256.308594 C 143.164062 256.101562 145.246094 255.84375 147.324219 255.535156 C 149.398438 255.226562 151.46875 254.867188 153.527344 254.460938 C 155.585938 254.050781 157.632812 253.589844 159.667969 253.078125 C 161.707031 252.570312 163.730469 252.011719 165.738281 251.402344 C 167.746094 250.792969 169.738281 250.132812 171.714844 249.425781 C 173.691406 248.71875 175.652344 247.964844 177.589844 247.160156 C 179.53125 246.355469 181.449219 245.503906 183.347656 244.609375 C 185.246094 243.710938 187.121094 242.765625 188.972656 241.777344 C 190.824219 240.789062 192.648438 239.753906 194.449219 238.671875 C 196.25 237.59375 198.023438 236.472656 199.769531 235.304688 C 201.515625 234.140625 203.230469 232.929688 204.917969 231.679688 C 206.601562 230.429688 208.257812 229.136719 209.878906 227.804688 C 211.503906 226.472656 213.09375 225.101562 214.648438 223.695312 C 216.203125 222.285156 217.722656 220.835938 219.207031 219.351562 C 220.691406 217.867188 222.140625 216.347656 223.550781 214.792969 C 224.960938 213.234375 226.332031 211.648438 227.664062 210.023438 C 228.996094 208.402344 230.285156 206.746094 231.535156 205.058594 C 232.785156 203.375 233.996094 201.65625 235.160156 199.914062 C 236.328125 198.167969 237.449219 196.394531 238.53125 194.59375 C 239.609375 192.792969 240.644531 190.964844 241.632812 189.113281 C 242.625 187.261719 243.566406 185.386719 244.464844 183.492188 C 245.363281 181.59375 246.210938 179.675781 247.015625 177.734375 C 247.820312 175.792969 248.574219 173.835938 249.28125 171.859375 C 249.988281 169.882812 250.648438 167.890625 251.257812 165.882812 C 251.867188 163.871094 252.425781 161.851562 252.9375 159.8125 C 253.445312 157.777344 253.90625 155.730469 254.316406 153.667969 C 254.726562 151.609375 255.085938 149.542969 255.390625 147.464844 C 255.699219 145.390625 255.957031 143.304688 256.164062 141.21875 C 256.367188 139.128906 256.523438 137.035156 256.625 134.9375 C 256.730469 132.839844 256.78125 130.742188 256.78125 128.644531 C 256.78125 126.542969 256.730469 124.445312 256.625 122.347656 C 256.523438 120.253906 256.367188 118.160156 256.164062 116.070312 C 255.957031 113.980469 255.699219 111.898438 255.390625 109.820312 C 255.085938 107.742188 254.726562 105.675781 254.316406 103.617188 C 253.90625 101.558594 253.445312 99.511719 252.9375 97.472656 C 252.425781 95.4375 251.867188 93.414062 251.257812 91.40625 C 250.648438 89.394531 249.988281 87.402344 249.28125 85.425781 C 248.574219 83.449219 247.820312 81.492188 247.015625 79.550781 C 246.210938 77.613281 245.363281 75.695312 244.464844 73.796875 C 243.566406 71.898438 242.625 70.023438 241.632812 68.171875 C 240.644531 66.320312 239.609375 64.496094 238.53125 62.695312 C 237.449219 60.894531 236.328125 59.121094 235.160156 57.375 C 233.996094 55.628906 232.785156 53.914062 231.535156 52.226562 C 230.285156 50.539062 228.996094 48.886719 227.664062 47.261719 C 226.332031 45.640625 224.960938 44.050781 223.550781 42.496094 C 222.140625 40.941406 220.691406 39.417969 219.207031 37.933594 C 217.722656 36.449219 216.203125 35.003906 214.648438 33.59375 C 213.09375 32.183594 211.503906 30.8125 209.878906 29.480469 C 208.257812 28.148438 206.601562 26.859375 204.917969 25.605469 C 203.230469 24.355469 201.515625 23.148438 199.769531 21.980469 C 198.023438 20.816406 196.25 19.691406 194.449219 18.613281 C 192.648438 17.535156 190.824219 16.5 188.972656 15.507812 C 187.121094 14.519531 185.246094 13.578125 183.347656 12.679688 C 181.449219 11.78125 179.53125 10.929688 177.589844 10.128906 C 175.652344 9.324219 173.691406 8.570312 171.714844 7.859375 C 169.738281 7.152344 167.746094 6.496094 165.738281 5.886719 C 163.730469 5.277344 161.707031 4.71875 159.667969 4.207031 C 157.632812 3.695312 155.585938 3.238281 153.527344 2.828125 C 151.46875 2.417969 149.398438 2.058594 147.324219 1.75 C 145.246094 1.441406 143.164062 1.1875 141.074219 0.980469 C 138.984375 0.773438 136.890625 0.621094 134.792969 0.515625 C 132.699219 0.414062 130.597656 0.363281 128.5 0.363281 Z M 128.5 0.363281 "/></g></g><mask xml:id="mask0" id="mask0"><g filter="url(#alpha)"><rect x="0" width="375" y="0" height="374.999991" style="fill:rgb(0%,0%,0%);fill-opacity:0.4471;stroke:none;"/></g></mask></g><path style=" stroke:none;fill-rule:nonzero;fill:rgb(0%,0%,0%);fill-opacity:1;" d="M 85.183594 140.796875 L 148.816406 140.796875 L 148.816406 145.296875 L 85.183594 145.296875 Z M 85.183594 140.796875 "/><g style="fill:rgb(13.328552%,13.328552%,13.328552%);fill-opacity:1;"><g transform="translate(106.870339, 203.381238)"><path style="stroke:none;" d="M 23.328125 -24.609375 C 23.109375 -24.828125 22.707031 -25.125 22.125 -25.5 C 21.550781 -25.875 20.847656 -26.238281 20.015625 -26.59375 C 19.191406 -26.957031 18.296875 -27.265625 17.328125 -27.515625 C 16.359375 -27.765625 15.375 -27.890625 14.375 -27.890625 C 12.582031 -27.890625 11.25 -27.5625 10.375 -26.90625 C 9.5 -26.25 9.0625 -25.328125 9.0625 -24.140625 C 9.0625 -23.441406 9.222656 -22.863281 9.546875 -22.40625 C 9.878906 -21.957031 10.359375 -21.5625 10.984375 -21.21875 C 11.609375 -20.875 12.398438 -20.5625 13.359375 -20.28125 C 14.316406 -20 15.421875 -19.703125 16.671875 -19.390625 C 18.296875 -18.953125 19.769531 -18.484375 21.09375 -17.984375 C 22.425781 -17.484375 23.554688 -16.859375 24.484375 -16.109375 C 25.410156 -15.359375 26.125 -14.457031 26.625 -13.40625 C 27.125 -12.351562 27.375 -11.0625 27.375 -9.53125 C 27.375 -7.75 27.035156 -6.222656 26.359375 -4.953125 C 25.691406 -3.679688 24.785156 -2.65625 23.640625 -1.875 C 22.492188 -1.09375 21.175781 -0.519531 19.6875 -0.15625 C 18.207031 0.195312 16.65625 0.375 15.03125 0.375 C 12.519531 0.375 10.039062 0 7.59375 -0.75 C 5.15625 -1.5 2.96875 -2.5625 1.03125 -3.9375 L 3.890625 -9.53125 C 4.171875 -9.25 4.679688 -8.878906 5.421875 -8.421875 C 6.160156 -7.972656 7.03125 -7.519531 8.03125 -7.0625 C 9.03125 -6.613281 10.140625 -6.234375 11.359375 -5.921875 C 12.578125 -5.609375 13.832031 -5.453125 15.125 -5.453125 C 18.6875 -5.453125 20.46875 -6.59375 20.46875 -8.875 C 20.46875 -9.59375 20.265625 -10.203125 19.859375 -10.703125 C 19.453125 -11.203125 18.875 -11.640625 18.125 -12.015625 C 17.375 -12.390625 16.460938 -12.734375 15.390625 -13.046875 C 14.328125 -13.359375 13.140625 -13.707031 11.828125 -14.09375 C 10.234375 -14.53125 8.847656 -15.003906 7.671875 -15.515625 C 6.503906 -16.035156 5.523438 -16.644531 4.734375 -17.34375 C 3.953125 -18.050781 3.363281 -18.863281 2.96875 -19.78125 C 2.582031 -20.707031 2.390625 -21.8125 2.390625 -23.09375 C 2.390625 -24.789062 2.703125 -26.296875 3.328125 -27.609375 C 3.953125 -28.921875 4.820312 -30.015625 5.9375 -30.890625 C 7.050781 -31.765625 8.34375 -32.429688 9.8125 -32.890625 C 11.28125 -33.347656 12.863281 -33.578125 14.5625 -33.578125 C 16.90625 -33.578125 19.0625 -33.207031 21.03125 -32.46875 C 23.007812 -31.726562 24.734375 -30.859375 26.203125 -29.859375 Z M 23.328125 -24.609375 "/></g></g><g style="fill:rgb(13.328552%,13.328552%,13.328552%);fill-opacity:1;"><g transform="translate(135.655021, 203.381238)"><path style="stroke:none;" d="M 30.65625 0 L 30.65625 -22.0625 L 22.0625 -5.640625 L 18.546875 -5.640625 L 9.953125 -22.0625 L 9.953125 0 L 3.46875 0 L 3.46875 -33.34375 L 10.421875 -33.34375 L 20.28125 -14.375 L 30.234375 -33.34375 L 37.140625 -33.34375 L 37.140625 0 Z M 30.65625 0 "/></g></g><g style="fill:rgb(13.328552%,13.328552%,13.328552%);fill-opacity:1;"><g transform="translate(176.272893, 203.381238)"><path style="stroke:none;" d="M 12.953125 -33.34375 L 18.6875 -33.34375 L 31.359375 0 L 24.703125 0 L 21.59375 -8.3125 L 9.953125 -8.3125 L 6.90625 0 L 0.234375 0 Z M 20.421875 -12.859375 L 15.828125 -25.96875 L 11.03125 -12.859375 Z M 20.421875 -12.859375 "/></g></g><g style="fill:rgb(13.328552%,13.328552%,13.328552%);fill-opacity:1;"><g transform="translate(207.828051, 203.381238)"><path style="stroke:none;" d="M 3.46875 0 L 3.46875 -33.34375 L 18.21875 -33.34375 C 19.75 -33.34375 21.164062 -33.019531 22.46875 -32.375 C 23.769531 -31.726562 24.890625 -30.878906 25.828125 -29.828125 C 26.765625 -28.785156 27.5 -27.597656 28.03125 -26.265625 C 28.5625 -24.941406 28.828125 -23.601562 28.828125 -22.25 C 28.828125 -20.09375 28.285156 -18.128906 27.203125 -16.359375 C 26.128906 -14.585938 24.664062 -13.3125 22.8125 -12.53125 L 30.421875 0 L 23.140625 0 L 16.34375 -11.171875 L 9.953125 -11.171875 L 9.953125 0 Z M 9.953125 -16.859375 L 18.078125 -16.859375 C 18.671875 -16.859375 19.222656 -17 19.734375 -17.28125 C 20.253906 -17.5625 20.703125 -17.941406 21.078125 -18.421875 C 21.453125 -18.910156 21.75 -19.484375 21.96875 -20.140625 C 22.1875 -20.796875 22.296875 -21.5 22.296875 -22.25 C 22.296875 -23.03125 22.171875 -23.75 21.921875 -24.40625 C 21.671875 -25.070312 21.332031 -25.644531 20.90625 -26.125 C 20.488281 -26.613281 20.003906 -26.988281 19.453125 -27.25 C 18.910156 -27.519531 18.359375 -27.65625 17.796875 -27.65625 L 9.953125 -27.65625 Z M 9.953125 -16.859375 "/></g></g><g style="fill:rgb(13.328552%,13.328552%,13.328552%);fill-opacity:1;"><g transform="translate(239.054501, 203.381238)"><path style="stroke:none;" d="M 28.40625 -27.65625 L 17.75 -27.65625 L 17.75 0 L 11.3125 0 L 11.3125 -27.65625 L 0.65625 -27.65625 L 0.65625 -33.34375 L 28.40625 -33.34375 Z M 28.40625 -27.65625 "/></g></g><g style="fill:rgb(13.328552%,13.328552%,13.328552%);fill-opacity:1;"><g transform="translate(154.484833, 152.727192)"><path style="stroke:none;" d="M 16.328125 -15.90625 L 10.203125 -15.90625 L 10.203125 0 L 6.5 0 L 6.5 -15.90625 L 0.375 -15.90625 L 0.375 -19.171875 L 16.328125 -19.171875 Z M 16.328125 -15.90625 "/></g></g><g style="fill:rgb(13.328552%,13.328552%,13.328552%);fill-opacity:1;"><g transform="translate(171.197841, 152.727192)"><path style="stroke:none;" d=""/></g><g transform="translate(177.677841, 152.727192)"><path style="stroke:none;" d="M 18.109375 -19.171875 L 18.109375 0 L 14.421875 0 L 14.421875 -8.1875 L 5.71875 -8.1875 L 5.71875 0 L 2 0 L 2 -19.171875 L 5.71875 -19.171875 L 5.71875 -11.421875 L 14.421875 -11.421875 L 14.421875 -19.171875 Z M 18.109375 -19.171875 "/></g></g><g style="fill:rgb(13.328552%,13.328552%,13.328552%);fill-opacity:1;"><g transform="translate(197.792845, 152.727192)"><path style="stroke:none;" d=""/></g><g transform="translate(204.272844, 152.727192)"><path style="stroke:none;" d="M 15.3125 -3.265625 L 15.3125 0 L 2 0 L 2 -19.171875 L 15.0625 -19.171875 L 15.0625 -15.90625 L 5.71875 -15.90625 L 5.71875 -11.28125 L 13.796875 -11.28125 L 13.796875 -8.265625 L 5.71875 -8.265625 L 5.71875 -3.265625 Z M 15.3125 -3.265625 "/></g></g><g style="fill:rgb(13.328552%,13.328552%,13.328552%);fill-opacity:1;"><g transform="translate(150.797335, 240.722915)"><path style="stroke:none;" d="M 1.546875 0 L 1.546875 -19.203125 L 7.46875 -19.203125 C 9.476562 -19.203125 11.003906 -18.753906 12.046875 -17.859375 C 13.085938 -16.960938 13.609375 -15.65625 13.609375 -13.9375 C 13.609375 -12.957031 13.390625 -12.113281 12.953125 -11.40625 C 12.523438 -10.707031 11.9375 -10.195312 11.1875 -9.875 C 12.050781 -9.625 12.710938 -9.128906 13.171875 -8.390625 C 13.640625 -7.648438 13.875 -6.734375 13.875 -5.640625 C 13.875 -3.773438 13.363281 -2.367188 12.34375 -1.421875 C 11.320312 -0.472656 9.835938 0 7.890625 0 Z M 5.421875 -8.34375 L 5.421875 -3.21875 L 7.890625 -3.21875 C 8.585938 -3.21875 9.113281 -3.429688 9.46875 -3.859375 C 9.832031 -4.296875 10.015625 -4.910156 10.015625 -5.703125 C 10.015625 -7.421875 9.390625 -8.300781 8.140625 -8.34375 Z M 5.421875 -11.171875 L 7.4375 -11.171875 C 8.957031 -11.171875 9.71875 -11.957031 9.71875 -13.53125 C 9.71875 -14.394531 9.539062 -15.015625 9.1875 -15.390625 C 8.832031 -15.773438 8.257812 -15.96875 7.46875 -15.96875 L 5.421875 -15.96875 Z M 5.421875 -11.171875 "/></g></g><g style="fill:rgb(13.328552%,13.328552%,13.328552%);fill-opacity:1;"><g transform="translate(165.938714, 240.722915)"><path style="stroke:none;" d="M 14.03125 -19.203125 L 14.03125 -5.90625 C 14.007812 -3.90625 13.457031 -2.375 12.375 -1.3125 C 11.300781 -0.257812 9.75 0.265625 7.71875 0.265625 C 5.664062 0.265625 4.097656 -0.269531 3.015625 -1.34375 C 1.929688 -2.414062 1.390625 -3.96875 1.390625 -6 L 1.390625 -19.203125 L 5.28125 -19.203125 L 5.28125 -5.984375 C 5.28125 -4.890625 5.457031 -4.109375 5.8125 -3.640625 C 6.164062 -3.179688 6.800781 -2.953125 7.71875 -2.953125 C 8.644531 -2.953125 9.28125 -3.179688 9.625 -3.640625 C 9.96875 -4.109375 10.144531 -4.867188 10.15625 -5.921875 L 10.15625 -19.203125 Z M 14.03125 -19.203125 "/></g></g><g style="fill:rgb(13.328552%,13.328552%,13.328552%);fill-opacity:1;"><g transform="translate(181.356823, 240.722915)"><path style="stroke:none;" d="M 7.328125 -10.578125 L 10.21875 -19.203125 L 14.4375 -19.203125 L 9.296875 -6.96875 L 9.296875 0 L 5.359375 0 L 5.359375 -6.96875 L 0.21875 -19.203125 L 4.4375 -19.203125 Z M 7.328125 -10.578125 "/></g></g><g style="fill:rgb(13.328552%,13.328552%,13.328552%);fill-opacity:1;"><g transform="translate(195.997443, 240.722915)"><path style="stroke:none;" d="M 11.453125 -8.3125 L 5.421875 -8.3125 L 5.421875 -3.21875 L 12.5625 -3.21875 L 12.5625 0 L 1.546875 0 L 1.546875 -19.203125 L 12.53125 -19.203125 L 12.53125 -15.96875 L 5.421875 -15.96875 L 5.421875 -11.4375 L 11.453125 -11.4375 Z M 11.453125 -8.3125 "/></g></g><g style="fill:rgb(13.328552%,13.328552%,13.328552%);fill-opacity:1;"><g transform="translate(209.241209, 240.722915)"><path style="stroke:none;" d="M 7.359375 -7.015625 L 5.4375 -7.015625 L 5.4375 0 L 1.5625 0 L 1.5625 -19.203125 L 7.734375 -19.203125 C 9.679688 -19.203125 11.179688 -18.695312 12.234375 -17.6875 C 13.296875 -16.675781 13.828125 -15.242188 13.828125 -13.390625 C 13.828125 -10.847656 12.898438 -9.066406 11.046875 -8.046875 L 14.40625 -0.1875 L 14.40625 0 L 10.25 0 Z M 5.4375 -10.25 L 7.640625 -10.25 C 8.410156 -10.25 8.988281 -10.503906 9.375 -11.015625 C 9.757812 -11.523438 9.953125 -12.210938 9.953125 -13.078125 C 9.953125 -15.003906 9.203125 -15.96875 7.703125 -15.96875 L 5.4375 -15.96875 Z M 5.4375 -10.25 "/></g></g><path style=" stroke:none;fill-rule:nonzero;fill:rgb(0%,0%,0%);fill-opacity:1;" d="M 225.953125 140.796875 L 289.585938 140.796875 L 289.585938 145.296875 L 225.953125 145.296875 Z M 225.953125 140.796875 "/></g></svg>